<?xml version="1.0" encoding="UTF-8"?>
<svg enable-background="new 0 0 271.953 271.953" version="1.1" viewBox="0 0 271.953 271.953" xml:space="preserve" xmlns="http://www.w3.org/2000/svg">
	<g fill="#010002">
		<path d="m135.98 271.95c75.097 0 135.98-60.879 135.98-135.98s-60.88-135.98-135.98-135.98-135.98 60.879-135.98 135.98 60.879 135.98 135.98 135.98zm0-250.2c62.979 0 114.22 51.241 114.22 114.22s-51.241 114.22-114.22 114.22-114.22-51.241-114.22-114.22 51.235-114.22 114.22-114.22z"/>
		<path d="m110.71 200.11c7.511 0 13.598-6.086 13.598-13.598v-103.34c0-7.511-6.086-13.598-13.598-13.598-7.511 0-13.598 6.086-13.598 13.598v103.34c0 7.512 6.086 13.598 13.598 13.598z"/>
		<path d="m165.1 200.11c7.511 0 13.598-6.086 13.598-13.598v-103.34c0-7.511-6.086-13.598-13.598-13.598s-13.597 6.087-13.597 13.598v103.34c0 7.512 6.086 13.598 13.597 13.598z"/>
	</g>
</svg>
